# Blender v2.82 (sub 7) OBJ File: ''
# www.blender.org
v -0.312366 0.312366 -0.500000
v 0.312366 0.312366 -0.500000
v -0.500000 0.500000 -0.500000
v 0.500000 0.500000 -0.500000
v -0.312366 0.312366 -1.229957
v 0.312366 0.312366 -1.229957
v -0.100259 0.100259 -1.568673
v 0.100259 0.100259 -1.568673
v -0.312366 0.312366 0.500000
v 0.312366 0.312366 0.500000
v -0.500000 0.500000 0.500000
v 0.500000 0.500000 0.500000
v -0.312366 0.312366 1.229957
v 0.312366 0.312366 1.229957
v -0.100259 0.100259 1.568673
v 0.100259 0.100259 1.568673
v -0.330049 0.645974 -0.330049
v 0.330049 0.645974 -0.330049
v -0.330049 0.645974 0.330049
v 0.330049 0.645974 0.330049
v -0.312366 -0.312366 -0.500000
v 0.312366 -0.312366 -0.500000
v -0.500000 -0.500000 -0.500000
v 0.500000 -0.500000 -0.500000
v -0.312366 -0.312366 -1.229957
v 0.312366 -0.312366 -1.229957
v -0.100259 -0.100259 -1.568673
v 0.100259 -0.100259 -1.568673
v -0.312366 -0.312366 0.500000
v 0.312366 -0.312366 0.500000
v -0.500000 -0.500000 0.500000
v 0.500000 -0.500000 0.500000
v -0.312366 -0.312366 1.229957
v 0.312366 -0.312366 1.229957
v -0.100259 -0.100259 1.568673
v 0.100259 -0.100259 1.568673
v -0.330049 -0.645974 -0.330049
v 0.330049 -0.645974 -0.330049
v -0.330049 -0.645974 0.330049
v 0.330049 -0.645974 0.330049
v -0.500000 0.000000 -0.500000
v 0.500000 0.000000 -0.500000
v -0.312366 0.000000 -0.500000
v 0.312366 0.000000 -0.500000
v -0.312366 0.000000 -1.229957
v 0.312366 0.000000 -1.229957
v -0.100259 0.000000 -1.568673
v 0.100259 0.000000 -1.568673
v 0.500000 0.000000 0.500000
v -0.312366 0.000000 0.500000
v 0.312366 0.000000 0.500000
v -0.312366 0.000000 1.229957
v 0.312366 0.000000 1.229957
v -0.100259 0.000000 1.568673
v 0.100259 0.000000 1.568673
v -0.500000 0.000000 0.500000
vt 0.269327 0.491952
vt 0.392405 0.257561
vt 0.392405 0.491952
vt 0.823048 0.257561
vt 0.669266 0.428656
vt 0.669266 0.257561
vt 0.069358 0.447972
vt 0.023170 0.257561
vt 0.069358 0.301541
vt 0.146249 0.257561
vt 0.146249 0.301541
vt 0.515483 0.758535
vt 0.592375 0.587440
vt 0.592375 0.758535
vt 0.423109 0.491952
vt 0.472468 0.515451
vt 0.423109 0.515451
vt 0.823048 0.428656
vt 0.721477 0.508048
vt 0.567695 0.508048
vt 0.592375 0.508048
vt 0.269327 0.491952
vt 0.065005 0.531787
vt 0.023170 0.491952
vt 0.146249 0.023170
vt 0.976830 0.428656
vt 0.823048 0.257561
vt 0.976830 0.257561
vt 0.269327 0.023170
vt 0.469296 0.067150
vt 0.315514 0.067150
vt 0.269327 0.140366
vt 0.315514 0.140366
vt 0.346218 0.663047
vt 0.269327 0.491952
vt 0.346218 0.491952
vt 0.423109 0.562451
vt 0.472468 0.538951
vt 0.472468 0.562451
vt 0.875259 0.508048
vt 0.823048 0.428656
vt 0.321539 0.742439
vt 0.269327 0.663047
vt 0.227492 0.686508
vt 0.227492 0.531787
vt 0.023170 0.726343
vt 0.269327 0.726342
vt 0.065005 0.686508
vt 0.515483 0.336953
vt 0.592375 0.508048
vt 0.515483 0.508048
vt 0.567695 0.257561
vt 0.592375 0.336953
vt 0.515483 0.140366
vt 0.469296 0.140366
vt 0.100061 0.976830
vt 0.176952 0.805734
vt 0.176952 0.976830
vt 0.100061 0.805734
vt 0.124741 0.726343
vt 0.146249 0.491952
vt 0.023170 0.491952
vt 0.515483 0.491952
vt 0.976830 0.679143
vt 0.823048 0.508048
vt 0.976830 0.508048
vt 0.269327 0.257561
vt 0.223140 0.447972
vt 0.223140 0.301541
vt 0.669266 0.758535
vt 0.423109 0.538951
vt 0.875259 0.758535
vt 0.823048 0.679143
vt 0.617054 0.508048
vt 0.669266 0.587440
vt 0.557318 0.063005
vt 0.515483 0.257561
vt 0.515483 0.023170
vt 0.823048 0.508048
vt 0.669266 0.679143
vt 0.669266 0.508048
vt 0.469296 0.213582
vt 0.269327 0.257561
vt 0.315514 0.213582
vt 0.423109 0.491952
vt 0.472468 0.585951
vt 0.823048 0.679143
vt 0.721477 0.758535
vt 0.370897 0.742439
vt 0.346218 0.742439
vt 0.719805 0.217726
vt 0.557318 0.217726
vt 0.761640 0.023170
vt 0.761640 0.257561
vt 0.719805 0.063005
vt 0.669266 0.336953
vt 0.669266 0.508048
vt 0.617054 0.257561
vt 0.515483 0.257561
vt 0.023170 0.805734
vt 0.023170 0.976830
vt 0.075382 0.726343
vt 0.146249 0.447972
vt 0.269327 0.257561
vt 0.515483 0.587440
vt 0.472468 0.491952
vt 0.770836 0.508048
vt 0.023170 0.023170
vt 0.515483 0.023170
vt 0.423109 0.538951
vt 0.924618 0.508048
vt 0.592375 0.257561
vt 0.100061 0.726343
vt 0.515483 0.257561
vt 0.269327 0.491952
vt 0.472468 0.538951
vt 0.924618 0.758535
vt 0.269327 0.023170
vt 0.423109 0.663047
vt 0.423109 0.585951
vt 0.770836 0.758535
vn -1.0000 0.0000 0.0000
vn 0.0000 1.0000 0.0000
vn 0.0000 0.0000 -1.0000
vn 0.0000 0.8475 -0.5307
vn -0.8475 0.0000 -0.5307
vn 0.6516 0.7586 0.0000
vn 1.0000 0.0000 0.0000
vn 0.0000 0.0000 1.0000
vn 0.0000 0.8475 0.5307
vn -0.8475 0.0000 0.5307
vn -0.6516 0.7586 0.0000
vn 0.0000 0.7586 -0.6516
vn 0.0000 0.7586 0.6516
vn 0.8475 0.0000 0.5307
vn 0.8475 0.0000 -0.5307
vn 0.0000 -1.0000 0.0000
vn 0.0000 -0.8475 -0.5307
vn 0.6516 -0.7586 0.0000
vn 0.0000 -0.8475 0.5307
vn -0.6516 -0.7586 0.0000
vn 0.0000 -0.7586 -0.6516
vn 0.0000 -0.7586 0.6516
s off
f 11/1/1 41/2/1 56/3/1
f 2/4/2 5/5/2 1/6/2
f 1/7/3 4/8/3 2/9/3
f 2/9/3 42/10/3 44/11/3
f 1/12/1 45/13/1 43/14/1
f 7/15/3 48/16/3 47/17/3
f 6/18/4 7/19/4 5/5/4
f 45/13/5 7/20/5 47/21/5
f 4/22/6 20/23/6 12/24/6
f 4/8/7 49/25/7 42/10/7
f 13/26/2 10/27/2 9/28/2
f 12/29/8 9/30/8 10/31/8
f 49/32/8 10/31/8 51/33/8
f 52/34/1 9/35/1 50/36/1
f 55/37/8 15/38/8 54/39/8
f 13/26/9 16/40/9 14/41/9
f 52/34/10 15/42/10 13/43/10
f 17/44/2 20/23/2 18/45/2
f 11/46/11 17/44/11 3/47/11
f 3/47/12 18/45/12 4/22/12
f 12/24/13 19/48/13 11/46/13
f 14/49/7 51/50/7 10/51/7
f 16/52/14 53/53/14 14/49/14
f 9/30/8 56/54/8 50/55/8
f 44/56/7 6/57/7 2/58/7
f 46/59/15 8/60/15 6/57/15
f 1/7/3 41/61/3 3/62/3
f 41/2/1 31/63/1 56/3/1
f 25/64/16 22/65/16 21/66/16
f 24/67/3 21/68/3 22/69/3
f 42/10/3 22/69/3 44/11/3
f 45/13/1 21/70/1 43/14/1
f 48/16/3 27/71/3 47/17/3
f 25/64/17 28/72/17 26/73/17
f 45/13/5 27/74/5 25/75/5
f 40/76/18 24/77/18 32/78/18
f 49/25/7 24/67/7 42/10/7
f 30/79/16 33/80/16 29/81/16
f 29/82/8 32/83/8 30/84/8
f 30/84/8 49/32/8 51/33/8
f 29/85/1 52/34/1 50/36/1
f 35/86/8 55/37/8 54/39/8
f 34/87/19 35/88/19 33/80/19
f 52/34/10 35/89/10 54/90/10
f 40/76/16 37/91/16 38/92/16
f 37/91/20 31/93/20 23/94/20
f 38/92/21 23/94/21 24/77/21
f 39/95/22 32/78/22 31/93/22
f 51/50/7 34/96/7 30/97/7
f 53/53/14 36/98/14 34/96/14
f 29/82/8 56/54/8 31/99/8
f 26/100/7 44/56/7 22/101/7
f 28/102/15 46/59/15 26/100/15
f 21/68/3 41/61/3 43/103/3
f 11/1/1 3/104/1 41/2/1
f 2/4/2 6/18/2 5/5/2
f 1/7/3 3/62/3 4/8/3
f 2/9/3 4/8/3 42/10/3
f 1/12/1 5/105/1 45/13/1
f 7/15/3 8/106/3 48/16/3
f 6/18/4 8/107/4 7/19/4
f 45/13/5 5/105/5 7/20/5
f 4/22/6 18/45/6 20/23/6
f 4/8/7 12/108/7 49/25/7
f 13/26/2 14/41/2 10/27/2
f 12/29/8 11/109/8 9/30/8
f 49/32/8 12/29/8 10/31/8
f 52/34/1 13/43/1 9/35/1
f 55/37/8 16/110/8 15/38/8
f 13/26/9 15/111/9 16/40/9
f 52/34/10 54/90/10 15/42/10
f 17/44/2 19/48/2 20/23/2
f 11/46/11 19/48/11 17/44/11
f 3/47/12 17/44/12 18/45/12
f 12/24/13 20/23/13 19/48/13
f 14/49/7 53/53/7 51/50/7
f 16/52/14 55/112/14 53/53/14
f 9/30/8 11/109/8 56/54/8
f 44/56/7 46/59/7 6/57/7
f 46/59/15 48/113/15 8/60/15
f 1/7/3 43/103/3 41/61/3
f 41/2/1 23/114/1 31/63/1
f 25/64/16 26/73/16 22/65/16
f 24/67/3 23/115/3 21/68/3
f 42/10/3 24/67/3 22/69/3
f 45/13/1 25/75/1 21/70/1
f 48/16/3 28/116/3 27/71/3
f 25/64/17 27/117/17 28/72/17
f 45/13/5 47/21/5 27/74/5
f 40/76/18 38/92/18 24/77/18
f 49/25/7 32/118/7 24/67/7
f 30/79/16 34/87/16 33/80/16
f 29/82/8 31/99/8 32/83/8
f 30/84/8 32/83/8 49/32/8
f 29/85/1 33/119/1 52/34/1
f 35/86/8 36/120/8 55/37/8
f 34/87/19 36/121/19 35/88/19
f 52/34/10 33/119/10 35/89/10
f 40/76/16 39/95/16 37/91/16
f 37/91/20 39/95/20 31/93/20
f 38/92/21 37/91/21 23/94/21
f 39/95/22 40/76/22 32/78/22
f 51/50/7 53/53/7 34/96/7
f 53/53/14 55/112/14 36/98/14
f 29/82/8 50/55/8 56/54/8
f 26/100/7 46/59/7 44/56/7
f 28/102/15 48/113/15 46/59/15
f 21/68/3 23/115/3 41/61/3
