# Blender v2.82 (sub 7) OBJ File: ''
# www.blender.org
v 0.990000 1.000000 -0.990000
v 1.000000 0.010000 -0.990000
v 0.990000 0.990000 0.000000
v 0.990000 0.010000 0.000000
v 0.010000 1.000000 -0.990000
v 0.010000 0.010000 -1.000000
v 0.010000 0.990000 0.000000
v 0.010000 0.010000 0.000000
v 0.000000 0.010000 -0.010000
v 0.010000 1.000000 -0.010000
v 0.990000 1.000000 -0.010000
v 1.000000 0.010000 -0.010000
v 1.000000 0.990000 -0.010000
v 0.000000 0.990000 -0.010000
v 1.000000 0.990000 -0.990000
v 0.010000 0.990000 -1.000000
v 0.990000 0.990000 -1.000000
v 0.990000 0.010000 -1.000000
v 1.000000 1.000000 0.000000
v 0.990000 0.000000 -0.010000
v 0.990000 0.000000 -0.990000
v 0.000000 0.010000 -0.990000
v 1.000000 1.000000 -1.000000
v 0.000000 0.990000 -0.990000
v 0.010000 0.000000 -0.990000
v 0.010000 0.000000 -0.010000
v 0.000000 1.000000 0.000000
v 0.000000 1.000000 -1.000000
v 0.000000 0.000000 -1.000000
v 0.000000 0.000000 0.000000
v 1.000000 0.000000 -1.000000
v 1.000000 0.000000 0.000000
vt 0.622500 0.997500
vt 0.375000 1.000000
vt 0.377500 0.997500
vt 0.377500 0.752500
vt 0.625000 0.750000
vt 0.622500 0.752500
vt 0.625000 1.000000
vt 0.375000 0.750000
vt 0.872500 0.747500
vt 0.627500 0.747500
vt 0.625000 0.500000
vt 0.627500 0.502500
vt 0.872500 0.502500
vt 0.875000 0.750000
vt 0.875000 0.500000
vt 0.377500 0.502500
vt 0.622500 0.502500
vt 0.622500 0.747500
vt 0.377500 0.747500
vt 0.375000 0.500000
vt 0.377500 0.497500
vt 0.375000 0.250000
vt 0.377500 0.252500
vt 0.622500 0.497500
vt 0.625000 0.250000
vt 0.622500 0.252500
vt 0.377500 0.247500
vt 0.375000 0.000000
vt 0.377500 0.002500
vt 0.625000 0.000000
vt 0.622500 0.002500
vt 0.622500 0.247500
vt 0.127500 0.747500
vt 0.125000 0.500000
vt 0.127500 0.502500
vt 0.372500 0.502500
vt 0.372500 0.747500
vt 0.125000 0.750000
vn 0.0000 0.0000 1.0000
vn 0.0000 1.0000 0.0000
vn 1.0000 0.0000 0.0000
vn 0.0000 0.0000 -1.0000
vn -1.0000 0.0000 0.0000
vn 0.0000 -1.0000 0.0000
s off
f 7/1/1 30/2/1 8/3/1
f 4/4/1 19/5/1 3/6/1
f 3/6/1 27/7/1 7/1/1
f 8/3/1 32/8/1 4/4/1
f 10/9/2 19/5/2 11/10/2
f 11/10/2 23/11/2 1/12/2
f 5/13/2 27/14/2 10/9/2
f 1/12/2 28/15/2 5/13/2
f 2/16/3 23/11/3 15/17/3
f 13/18/3 32/8/3 12/19/3
f 15/17/3 19/5/3 13/18/3
f 12/19/3 31/20/3 2/16/3
f 18/21/4 29/22/4 6/23/4
f 17/24/4 31/20/4 18/21/4
f 6/23/4 28/25/4 16/26/4
f 16/26/4 23/11/4 17/24/4
f 22/27/5 30/28/5 9/29/5
f 9/29/5 27/30/5 14/31/5
f 24/32/5 29/22/5 22/27/5
f 14/31/5 28/25/5 24/32/5
f 26/33/6 29/34/6 25/35/6
f 25/35/6 31/20/6 21/36/6
f 20/37/6 30/38/6 26/33/6
f 21/36/6 32/8/6 20/37/6
f 7/1/1 27/7/1 30/2/1
f 4/4/1 32/8/1 19/5/1
f 3/6/1 19/5/1 27/7/1
f 8/3/1 30/2/1 32/8/1
f 10/9/2 27/14/2 19/5/2
f 11/10/2 19/5/2 23/11/2
f 5/13/2 28/15/2 27/14/2
f 1/12/2 23/11/2 28/15/2
f 2/16/3 31/20/3 23/11/3
f 13/18/3 19/5/3 32/8/3
f 15/17/3 23/11/3 19/5/3
f 12/19/3 32/8/3 31/20/3
f 18/21/4 31/20/4 29/22/4
f 17/24/4 23/11/4 31/20/4
f 6/23/4 29/22/4 28/25/4
f 16/26/4 28/25/4 23/11/4
f 22/27/5 29/22/5 30/28/5
f 9/29/5 30/28/5 27/30/5
f 24/32/5 28/25/5 29/22/5
f 14/31/5 27/30/5 28/25/5
f 26/33/6 30/38/6 29/34/6
f 25/35/6 29/34/6 31/20/6
f 20/37/6 32/8/6 30/38/6
f 21/36/6 31/20/6 32/8/6
